<svg width="316" height="308" viewBox="0 0 316 308" fill="none" xmlns="http://www.w3.org/2000/svg"><path d="M203.464 283.544C129.956 294.136 29.27 241.283 18.65 167.584 8.03 93.885 70.727 30.25 144.234 19.657 217.742 9.065 285.945 60.22 296.565 133.918c10.62 73.699-19.594 139.033-93.101 149.626z" fill="#22D172"/><g clip-path="url(#clip0)"><path d="M12.2 81.3c29.2 2.1 58.4-.4 87.7.7 13 .5 26.1 2.4 39.1 1" fill="#fff"/><path d="M12.1 82.6c20.9 1.4 41.8.6 62.8.4 10.9-.1 21.8-.1 32.7.6 10.6.7 21.1 1.6 31.7.6 2.3-.2 1.3-2.8-.7-2.6-10.9 1-21.8 0-32.7-.7-9.9-.6-19.8-.6-29.7-.5-21.3.2-42.6 1-63.8-.4-2.2-.2-2.5 2.4-.3 2.6z" fill="#1A2E44"/><path d="M140.7 81.4c-9.2 0-19.5-.4-25.9-7.1-4.1-4.3-5.6-10.4-9.3-15.1-1.5-1.9-3.6-3.7-6-4.1-2.3-.4-4.6.4-6.6 1.6-3.3 1.9-5.9 4.9-7.4 8.4-1.4 3.2-2.6 7.4-6.3 7.3-.8 0-1.6-.3-2.4-.7-4.3-2.3-7-6.8-11.7-8.8-1.4-.6-3-.8-4.6-.6-5.4 1-5.2 7.1-8.6 10-1.9 1.6-4.5 2-6.9 2.3-14.2 1.7-28.4 3-42.6 3.9-.9.1-1 1.4-.1 1.5 5.9.8 11.8 1.3 17.7 1.4" fill="#fff"/><path d="M140.6 80.1c-7.3 0-15.7 0-21.9-4.5-5.7-4.1-7.3-11.1-11.3-16.5-7.7-10.3-19.5-3.1-23.9 6.4-.5 1.1-.9 3.2-1.9 4-2.8 2.2-5.9 0-8-1.9-2-1.8-3.8-3.7-6.2-4.9-3.9-2.1-8.7-2.2-11.9 1.2-1.4 1.5-2 3.5-3.1 5.3-2.6 4.5-7.7 4.4-12.4 5-8.4.9-16.8 1.8-25.1 2.5-1.7-.1-16.1-1-14.8 3.3.6 2 4.3 1.8 5.8 2 4.7.5 9.5.8 14.2.9 2.2.1 2-2.6-.2-2.6-3.1-.1-6.3-.2-9.4-.5-1.8-.2-5.1-1.2-6.2 0 .7-.8 6.6-.5 7.8-.6 1.9-.2 3.9-.3 5.8-.5 9.5-.8 19.2-1.4 28.5-3 6.4-1.1 7.6-3.9 10.7-9 5.7-9.5 14.1 5.2 20.3 6.7 5.2 1.2 7.3-3.1 9.2-7.1 1.8-4 5.1-9 9.9-9.9 6.4-1.3 9.4 6.4 11.7 10.8 3 5.7 6.5 10.3 12.7 12.8 6.2 2.5 13.1 2.6 19.7 2.6 2.3.1 2.2-2.5 0-2.5z" fill="#1A2E44"/><path d="M117.4 118.8s-1.1-28.4 2-36.6c3.3-8.8 15.4-21 26.6-21.2 11.2-.2 40.3.1 46.5 3.3 6.2 3.2 17.1 13.2 17.4 22.9.3 9.7 1.4 35.4 1.4 35.4l-12.4-3.1s.1-29.6-4.2-35.8c-4.3-6.1-15.3-9.7-29-9.7s-24.7.1-30.1 6.3c-6 6.9-6.1 39.1-6.1 39.1l-12.1-.6z" fill="#fff"/><path d="M244.7 247.8c2.4-5.1 4.7-10.3 6.7-15.6 2.2-5.7 4.3-11.2 8.5-15.7-.7-.4-1.5-.7-2.2-1.1-5.4 10.4-10.3 21.1-10.6 33 0 1.1 1.8 1.3 2.3.6 3.2-4.2 5.9-8.6 8-13.5l-2.4-.6c-1.3 4-2.5 7.8-2.9 12-.1 1.1 1.4 1.6 2.1 1 4.4-3 8.2-6.5 11.5-10.6.8-1-1.5-2-2.2-1.1-3.2 4-6.9 7.3-11.2 10.2.7.3 1.4.7 2.1 1 .4-4.2 1.6-8 2.9-12 .4-1.2-1.9-1.7-2.4-.6-2.1 4.7-4.7 9-7.8 13 .8.2 1.6.4 2.3.6.2-11.5 5.1-22 10.3-32.1.7-1.3-1.5-1.9-2.2-1.1-7.8 8.3-10.5 21.2-15.3 31.3-.2 1.4 2 2.4 2.5 1.3z" fill="#1A2E44"/><path d="M143.6 77s-6.8 8.8-6.8 18.5v23.3H130s1.1-28.9 3.2-33.8c2.1-4.9 8.4-8.1 9.4-8.1l1 .1z" fill="#1A2E44"/><path d="M187.9 60.9c3.4.8 12.9 0 19.5 5.8 14.1 12.5 11.9 46.4 10.3 60.4-.3 2.5-1.7 4.6-3.8 6-1.3.9-2.9 1.2-4.4 1.3-4.5.4-9.1-.9-12.8-3.4-1.8-1.2-3.4-2.8-4.2-4.8-.7-1.8 18.6-.7 18.8-2.6.9-9.9 1.7-20 .2-29.8-1.2-8.2-7.8-26.3-20.1-28.8" fill="#1A2E44"/><path d="M120.5 151c-4.4-.2-4-2.6-3.9-6.1 0-3.5.1-7 .2-10.6.1-7.4.2-14.8.4-22.2.3-14.5-2-31.2 9.8-41.9 7.8-7.1 17.4-8.4 27.4-8.4 7.6 0 15.1-.1 22.7 0 11.8.1 21.7 6.2 27.8 16.2 7.3 12.1 5.1 26.4 5.1 39.9 0 5.7.1 11.5.1 17.2 0 2.1.1 4.3.1 6.4 0 3.5.9 7-3.7 8.1-2.7.7-6 .3-8.8.4l-12.8.3c-21.6.4-43.2.6-64.8.6-1.3 0-2 2-.4 2 22.3-.1 44.6-.2 67-.7 4.7-.1 9.4-.2 14.1-.4 3-.1 7.3.3 9.8-1.8 2.9-2.6 2-7.7 1.9-11.1-.1-6-.2-12.1-.2-18.1-.1-14.7 2.7-30.8-5.3-44-6.2-10.2-16.5-16.9-28.6-17.1-8.2-.1-16.4 0-24.5 0-10.2 0-20 1.8-28 8.7-12.9 11.2-10.9 27.9-11.2 43.4-.2 9.5-.4 18.9-.5 28.4-.1 5.8-2.1 12.3 5.3 12.6 1.2.3 2.5-1.7 1-1.8z" fill="#1A2E44"/><path d="M131.7 151.1c-5.4-.5-2.8-12.3-2.5-15.9.5-6.4 1.2-12.8 1.7-19.2.5-6.2 1-12.4 1.2-18.6.2-5.1.7-10.1 3.8-14.4 8.3-11.5 26.4-7.5 38.5-6.9 7.7.4 14.9 2.1 18.9 9.4 2 3.7 2.7 7.9 2.9 12.1.2 6.7.1 13.5.3 20.2.3 9.5 1 19 1.2 28.4 0 2.7-.2 3.7-3 4.2-.9.2-2 .1-3 .1-3.2.1-6.4.2-9.7.2-16.8.3-33.6.3-50.4.3-1.3 0-2 2-.4 2 17.8 0 35.7 0 53.5-.4 4-.1 14.1 1.5 15.3-3.9.8-3.5-.1-8.2-.3-11.8-.3-6.7-.6-13.4-.9-20-.4-10.9 2.2-25.3-4.8-34.9-4.7-6.4-11.8-7.6-19.2-7.9-13.1-.6-31.1-4.5-40.5 7.6-3.1 4.1-4.3 9-4.5 14-.4 8.7-.9 17.3-1.7 25.9-.7 7.7-1.5 15.4-1.8 23.1-.1 4.2-.5 7.9 4.5 8.4 1.2.1 2.5-1.8.9-2z" fill="#1A2E44"/><path d="M289.6 249.2c0 3.5-47.7 6.4-106.5 6.4-28.1 0-62 1.1-81 0-20.9-1.2-22.8-4.6-22.8-6.4 0-3.5 88.5-5.9 147.3-5.9 58.8 0 63 2.3 63 5.9z" fill="#1A2E44"/><path d="M201.7 121.8c20.2 0 34.9.6 39.5 19.2 7 28 4.7 91.4 3.2 98.3-1.8 8.1-8.9 11.3-30.6 14.2-21.7 2.9-92.8-1.7-100.4 0-7.6 1.7-15.3-14.9-15.3-14.9s104.2-15.3 109.3-41.4c5.1-26.1-5.7-75.4-5.7-75.4z" fill="#1A2E44"/><path d="M112.1 249.6c-19.4 0-25.5-17.5-25.5-22 .1-26.4.8-26.5 1.4-61.7.4-25.8 3.3-45.9 29.1-45.8l77.2-.6c26 .1 34.4 21.4 34.3 47.4-.2 38.4 1.9 49 0 64.9-1.6 13.7-14.6 16.1-21 16.6-16.7 1.4-73.7 1.2-95.5 1.2z" fill="#fff"/><path d="M112.3 248.6c-9.8-.2-18.1-5.3-22.4-14.1-3.1-6.5-2.1-13.7-1.9-20.8.3-18.3.7-36.6 1.5-54.8.4-8.9 1-18.8 5.4-26.8 4.7-8.4 13.1-10.9 22.2-11 9.2-.1 18.5-.1 27.7-.2l41.6-.3c12.8-.1 25.5.8 33.3 12.6 5.2 7.8 7 17.4 7.6 26.6.8 11.6.2 23.3.5 34.9.2 7.7.5 15.5.5 23.2 0 7.1.5 16.6-4.1 22.4-5.4 6.8-14.9 7.1-22.9 7.5-9.2.4-18.4.5-27.6.6-20.4.2-40.9.2-61.4.2-1.3 0-2 2-.4 2 19.8 0 39.6 0 59.5-.2 9.4-.1 18.8-.2 28.2-.6 6.6-.3 13.3-.4 19.4-3.3 14.4-6.9 11.8-26.3 11.4-39.6-.3-11.2-.6-22.5-.6-33.7 0-11.3 0-22.6-4-33.3-5.5-14.8-17.9-21.5-33.2-21.4l-40.1.3c-11.6.1-23.2.1-34.8.3-7.3.1-14.7 1.4-20.2 6.6-5.9 5.5-8.2 13.6-9.3 21.4-1.7 11.9-1.3 24.2-1.6 36.2-.2 8.4-.6 16.8-.8 25.2-.2 7.3-1.6 15.9.3 22.9 1.9 6.7 6.6 12.8 12.7 16.1 4.1 2.2 8.6 3 13.2 3.1 1.3.1 2-1.9.3-2z" fill="#1A2E44"/><path d="M154.2 203.1c-.4-.6-1.2-.8-1.2-1.7-.1-5.3-.2-14.8-.3-21.9-.1-5.2 2-9.3 4.5-9.2l1.1.1c2.6.1 4.8 4.5 4.9 9.8.2 7.8.4 17.9.5 21.2 0 1-.8 1.2-1.1 1.8-1.8 3.7-6.3 3.2-8.4-.1z" fill="#1A2E44"/><path d="M108.8 256.7c0 1.8-11.5 3.2-25.7 3.2-6.8 0-15.6.5-20.2 0-5-.6-5.5-2.3-5.5-3.2 0-1.8 22-2.9 36.2-2.9 14.2 0 15.2 1.2 15.2 2.9z" fill="#1A2E44"/><path d="M70.2 144.3s5.7-1.5 8 1.7c2.2 3 13 13.4 25.1 20.2 3.9 2.2 16.1 6.2 16.1 6.2s-1.4 26.9-7 42.3c-12.1 33.1-38.6 45.6-38.6 45.6l-4-3.2.4-112.8z" fill="#1A2E44"/><path d="M71.5 258.2c28.8-18.7 40.2-49.7 42.6-85l.3.2c-15.9-3.9-29.1-15.2-40.8-27.1l-3.3-1.3C58 156.2 44.1 166.6 28 169.5l.3-.2c.5 35.3 15.5 68.5 43.2 88.9z" fill="#fff"/><path d="M71.9 259.4c29.3-19.3 40.7-52.3 43.2-85.9-.4.3-.9.6-1.3.9.1.1.2.2.3.2.2-.8.3-1.6.5-2.4-10.5-2.8-19.8-8.4-28.1-15.4-5.3-4.5-9.6-10.5-16-13.1-.2-.1-.5.1-.7.2C57.7 154.8 44.3 165 28 168.2c.2.8.4 1.6.5 2.4.1-.1.2-.1.3-.2-.4-.4-.9-.7-1.3-1.1.7 35 15.4 68.7 43.7 89.9 1.1.8 1.6-1.6.7-2.3C44.2 236.1 30 203.1 29.3 169c0-.5-.7-1.5-1.3-1.1-.1.1-.2.1-.3.2-.8.5-.7 2.7.5 2.4 8.7-1.7 16.8-5.3 24.2-10.1 3.6-2.3 7-4.9 10.3-7.5 1.7-1.4 3.4-2.8 5.1-4.3 1.7-1.5 2-2.6 4.1-1.9 3.2 1 6 5.2 8.4 7.4 3.1 2.9 6.4 5.7 9.8 8.2 7.3 5.5 15.4 9.8 24.2 12.1 1.3.3 1.1-1.8.5-2.4-.1-.1-.2-.2-.3-.2-.6-.5-1.2.4-1.3.9-2.4 32.9-13.5 65.2-42.1 84-1 1-.3 3.4.8 2.7z" fill="#1A2E44"/><path d="M56.2 196.5c3.5 4.4 7 8.7 10.5 13.1.2.2.4.4.6.5.7.3 1.4-.5 1.8-1.3 5.1-9.2 10.8-17.8 17.2-25.8" fill="#fff"/><path d="M54.8 198.4c3.3 4.1 6.4 8.4 9.9 12.4 1.8 2 3.4 2.4 5.3.2 3.2-3.8 5.3-9 8-13.1 3-4.5 6.2-9 9.5-13.2 1.6-2-.6-5.7-2.6-3.2-5 6.5-9.7 13.2-13.9 20.2-.8 1.4-1.6 3.2-2.6 4.5l-.3 1.5c-.8-1-1.6-1.9-2.3-2.9-2.7-3.4-5.5-6.8-8.2-10.2-1.8-2.3-4.3 1.9-2.8 3.8z" fill="#1A2E44"/><path d="M212.5 121.201c-2.3 13.1 3.3 26.1 11.8 33.3 8.4 7.2 19.2 9.2 29.8 9.2 6.2 0 12.5-.7 18.3-3.6 5.8-2.9 11.3-8.2 14.1-15.3 4.4-11.5.9-24.7-4.8-34.3-3.5-5.8-7.7-10.8-12.6-14.8-7.8-6.4-43.4-20-54.9 15.9" fill="#1A2E44"/><path d="M208.7 115.901c-2.3 13.1 3.3 26.1 11.8 33.3 8.4 7.2 19.2 9.2 29.8 9.2 6.2 0 12.5-.7 18.3-3.6 5.8-2.9 11.3-8.2 14.1-15.3 4.4-11.5.9-24.7-4.8-34.3-3.5-5.8-7.7-10.8-12.6-14.8-7.8-6.4-43.4-20-54.9 15.9" fill="#fff"/><path d="M207.8 115.7c-2.7 18.5 7.9 36.4 26 41.8 17.9 5.3 42.1 2.2 49.7-17.2 6.9-17.6-3.1-38.1-16.4-49.8-6.8-6-16.8-8.9-25.7-9.2-16-.5-26.9 9.9-31.8 24.5-.4 1.2 1.3 2.6 1.8 1 4-11.8 12.1-21.3 25-22.8 8.4-1 17.4 1.1 24.9 5.1 12.3 6.6 21.2 22.3 22.5 36 1 10.6-3.3 20.9-12.3 26.8-7.7 5.1-17.5 5.8-26.5 5.1-9.7-.7-19.5-3.9-26.3-11.2-7.4-7.9-10.4-19-8.8-29.7-.1-1.4-1.9-2-2.1-.4z" fill="#1A2E44"/><path d="M235.768 130.069l-3.365 1.994c-.456.3-.247.816 0 .919l13.069 7.318a2.564 2.564 0 002.495 0l13.241-7.414c.401-.238.336-.721 0-.883l-3.558-1.921c-.3-.198-.97-.133-1.207.029l-8.476 4.746a2.564 2.564 0 01-2.495 0l-8.552-4.788c-.318-.196-.823-.185-1.152 0z" fill="#1A2E44"/><path d="M245.471 101.324a2.564 2.564 0 012.495 0l10.524 5.892c.42.213.458.783 0 1.04l-2.385 1.33a3 3 0 01-2.925-.004l-5.214-2.919a2.558 2.558 0 00-2.495 0l-5.221 2.923a2.999 2.999 0 01-2.927.002l-2.466-1.373c-.389-.167-.47-.663 0-.948l10.614-5.943z" fill="#1A2E44"/><path d="M263.188 110.194a2.406 2.406 0 011.248 2.095v17.047c0 .844-.529 1.001-1.093.706l-3.897-2.102v-11.46l-11.481 6.428a2.564 2.564 0 01-2.495 0l-11.48-6.428v11.459l-3.541 2.101c-.422.268-1.449.352-1.449-.704v-17.047c0-.865.476-1.663 1.247-2.095 1.242-.65 2.526 0 2.526 0l13.945 7.825 13.923-7.825s1.237-.746 2.547 0z" fill="#22D172"/></g><defs><clipPath id="clip0"><path fill="#fff" transform="translate(0 54)" d="M0 0h289.6v206.2H0z"/></clipPath></defs></svg>